<svg width="300" height="260" viewBox="0 0 300 260" fill="none" xmlns="http://www.w3.org/2000/svg">
<g clip-path="url(#clip0_569_9403)">
<path d="M70.438 231.107H62.7883V231.29H70.438V231.107Z" fill="#EBEBEB"/>
<path d="M299.402 235.898H286.372V236.081H299.402V235.898Z" fill="#EBEBEB"/>
<path d="M237.876 231.195H194.701V231.378H237.876V231.195Z" fill="#EBEBEB"/>
<path d="M129.847 235.358H96.8176V235.541H129.847V235.358Z" fill="#EBEBEB"/>
<path d="M61.0805 234.204H49.6353V234.387H61.0805V234.204Z" fill="#EBEBEB"/>
<path d="M270.321 235.358H253.854V235.541H270.321V235.358Z" fill="#EBEBEB"/>
<path d="M45.3796 234.117H6.51831V234.3H45.3796V234.117Z" fill="#EBEBEB"/>
<path d="M107.876 9.22363H15.73V147.214H107.876V9.22363Z" fill="#E6E6E6"/>
<path d="M105.832 9.22363H13.6863V147.214H105.832V9.22363Z" fill="#F5F5F5"/>
<path d="M102.153 13.3574H17.3577V143.087H102.153V13.3574Z" fill="white"/>
<path d="M18.9124 13.3506H17.365V143.08H18.9124V13.3506Z" fill="#E6E6E6"/>
<path d="M104.307 102.831H15.2046V108.374H104.307V102.831Z" fill="#F5F5F5"/>
<path opacity="0.4" d="M104.314 2.95801H9.86133V31.3389H104.314V2.95801Z" fill="#F0F0F0"/>
<path d="M9.67889 2.38792H111.869C112.008 2.39483 112.141 2.45301 112.24 2.55135C112.34 2.6497 112.4 2.78132 112.409 2.92107C112.409 3.07216 112.349 3.21705 112.242 3.32389C112.135 3.43072 111.99 3.49074 111.839 3.49074H9.64969C9.49996 3.48881 9.35702 3.42795 9.25182 3.32132C9.14662 3.2147 9.08763 3.0709 9.08765 2.92107C9.09884 2.77321 9.16651 2.63535 9.2766 2.53607C9.38669 2.4368 9.53075 2.38375 9.67889 2.38792Z" fill="#E6E6E6"/>
<path d="M6.28468 2.92114C6.28324 3.48159 6.44793 4.02989 6.75792 4.49669C7.06792 4.96349 7.5093 5.32783 8.02625 5.54364C8.54319 5.75945 9.11249 5.81704 9.66214 5.70911C10.2118 5.60119 10.7171 5.3326 11.1142 4.93733C11.5113 4.54205 11.7824 4.03783 11.8931 3.48843C12.0037 2.93903 11.9491 2.36912 11.7361 1.85078C11.5231 1.33243 11.1612 0.888938 10.6963 0.576366C10.2314 0.263793 9.68423 0.0961823 9.12409 0.094736C8.75217 0.0937757 8.38371 0.166123 8.03973 0.307643C7.69576 0.449164 7.38301 0.657091 7.11934 0.919547C6.85568 1.182 6.64626 1.49385 6.50305 1.83728C6.35984 2.18072 6.28563 2.54901 6.28468 2.92114Z" fill="#E6E6E6"/>
<path d="M107.117 6.12039C107.314 6.12061 107.503 6.04485 107.646 5.90885C107.789 5.77284 107.874 5.58704 107.883 5.39005V3.71758C107.874 3.52059 107.789 3.3348 107.646 3.19879C107.503 3.06278 107.314 2.98702 107.117 2.98724C107.018 2.98229 106.919 2.99752 106.826 3.032C106.733 3.06647 106.649 3.11948 106.577 3.1878C106.505 3.25612 106.448 3.33832 106.409 3.42939C106.37 3.52047 106.35 3.61852 106.35 3.71758V5.39736C106.35 5.59105 106.427 5.77682 106.564 5.91378C106.701 6.05075 106.887 6.12769 107.08 6.12769L107.117 6.12039Z" fill="#E6E6E6"/>
<path d="M18.2482 6.12045C18.4418 6.12045 18.6275 6.04351 18.7644 5.90654C18.9013 5.76958 18.9782 5.58381 18.9782 5.39011V3.71764C18.9782 3.52394 18.9013 3.33819 18.7644 3.20122C18.6275 3.06426 18.4418 2.9873 18.2482 2.9873C18.0546 2.9873 17.869 3.06426 17.7321 3.20122C17.5952 3.33819 17.5183 3.52394 17.5183 3.71764V5.3609C17.5183 5.5546 17.5952 5.74036 17.7321 5.87733C17.869 6.01429 18.0546 6.09124 18.2482 6.09124V6.12045Z" fill="#E6E6E6"/>
<path d="M95.19 2.92114C95.1885 3.48159 95.3532 4.02989 95.6632 4.49669C95.9732 4.96349 96.4146 5.32783 96.9315 5.54364C97.4485 5.75945 98.0178 5.81704 98.5674 5.70911C99.1171 5.60119 99.6224 5.3326 100.019 4.93733C100.417 4.54205 100.688 4.03783 100.798 3.48843C100.909 2.93903 100.854 2.36912 100.641 1.85078C100.428 1.33243 100.067 0.888938 99.6016 0.576366C99.1366 0.263793 98.5895 0.0961823 98.0294 0.094736C97.6574 0.0937757 97.289 0.166123 96.945 0.307643C96.601 0.449164 96.2883 0.657091 96.0246 0.919547C95.761 1.182 95.5515 1.49385 95.4083 1.83728C95.2651 2.18072 95.1909 2.54901 95.19 2.92114Z" fill="#E6E6E6"/>
<path d="M272.431 163.814H245.774V222.943H272.431V163.814Z" fill="#E6E6E6"/>
<path d="M267.314 222.95H135.869V226.697H267.314V222.95Z" fill="#E6E6E6"/>
<path d="M245.774 163.822H130.745V222.95H245.774V163.822Z" fill="#F5F5F5"/>
<path d="M235.299 171.096H141.226V190.486H235.299V171.096Z" fill="#E6E6E6"/>
<path d="M235.299 196.278H141.226V215.669H235.299V196.278Z" fill="#E6E6E6"/>
<path d="M200.241 179.466H176.27C175.621 179.466 175.095 179.992 175.095 180.642V180.948C175.095 181.598 175.621 182.124 176.27 182.124H200.241C200.89 182.124 201.416 181.598 201.416 180.948V180.642C201.416 179.992 200.89 179.466 200.241 179.466Z" fill="#F5F5F5"/>
<path d="M200.241 204.641H176.27C175.621 204.641 175.095 205.167 175.095 205.816V206.123C175.095 206.773 175.621 207.299 176.27 207.299H200.241C200.89 207.299 201.416 206.773 201.416 206.123V205.816C201.416 205.167 200.89 204.641 200.241 204.641Z" fill="#F5F5F5"/>
<path d="M213.993 155.335C217.25 155.335 219.891 152.693 219.891 149.434C219.891 146.175 217.25 143.533 213.993 143.533C210.736 143.533 208.095 146.175 208.095 149.434C208.095 152.693 210.736 155.335 213.993 155.335Z" fill="#F5F5F5"/>
<path d="M203.351 153.999C206.596 153.999 209.226 151.366 209.226 148.119C209.226 144.872 206.596 142.24 203.351 142.24C200.105 142.24 197.475 144.872 197.475 148.119C197.475 151.366 200.105 153.999 203.351 153.999Z" fill="#F5F5F5"/>
<path d="M174.942 156.715C178.187 156.715 180.818 154.083 180.818 150.836C180.818 147.589 178.187 144.957 174.942 144.957C171.696 144.957 169.066 147.589 169.066 150.836C169.066 154.083 171.696 156.715 174.942 156.715Z" fill="#F5F5F5"/>
<path d="M190.088 159.432C193.333 159.432 195.963 156.8 195.963 153.553C195.963 150.306 193.333 147.674 190.088 147.674C186.842 147.674 184.212 150.306 184.212 153.553C184.212 156.8 186.842 159.432 190.088 159.432Z" fill="#F5F5F5"/>
<path d="M229.657 150.296C229.657 150.296 228.708 163.822 192.241 163.822C155.774 163.822 154.825 150.296 154.825 150.296H229.657Z" fill="#E6E6E6"/>
<path d="M105.475 165.297H92.168V223.037H105.475V165.297Z" fill="#E6E6E6"/>
<path d="M102.913 223.037H16.606V226.696H102.913V223.037Z" fill="#E6E6E6"/>
<path d="M92.1608 165.297H14.0513V223.037H92.1608V165.297Z" fill="#F5F5F5"/>
<path d="M86.9343 172.403H19.2847V191.341H86.9343V172.403Z" fill="#E6E6E6"/>
<path d="M86.9343 196.994H19.2847V215.932H86.9343V196.994Z" fill="#E6E6E6"/>
<path d="M42.8615 174.719H63.3506C64.0179 174.715 64.657 174.448 65.1296 173.977C65.6022 173.505 65.8704 172.867 65.8761 172.199C65.8742 171.529 65.6075 170.888 65.1343 170.414C64.6611 169.941 64.0198 169.674 63.3506 169.672H42.8615C42.1941 169.678 41.5558 169.946 41.0846 170.419C40.6134 170.892 40.3471 171.531 40.3433 172.199C40.3471 172.866 40.6136 173.505 41.0851 173.976C41.5565 174.448 42.1948 174.715 42.8615 174.719Z" fill="#F5F5F5"/>
<path d="M42.8615 199.309H63.3506C64.0198 199.307 64.6611 199.041 65.1343 198.567C65.6075 198.094 65.8742 197.452 65.8761 196.782C65.8704 196.115 65.6022 195.476 65.1296 195.004C64.657 194.533 64.0179 194.267 63.3506 194.263H42.8615C42.1948 194.267 41.5565 194.533 41.0851 195.005C40.6136 195.477 40.3471 196.115 40.3433 196.782C40.3471 197.45 40.6134 198.09 41.0846 198.562C41.5558 199.035 42.1941 199.304 42.8615 199.309Z" fill="#F5F5F5"/>
<path d="M201.453 21.9395H163.248V99.7496H201.453V21.9395Z" fill="#EBEBEB"/>
<path d="M200.628 21.9395H160.183V99.7496H200.628V21.9395Z" fill="#F5F5F5"/>
<path d="M194.737 27.8262H166.059V93.8633H194.737V27.8262Z" fill="white"/>
<path d="M273.051 63.3418H252.132V87.4575H273.051V63.3418Z" fill="#EBEBEB"/>
<path d="M270.569 63.3418H247.898V87.4575H270.569V63.3418Z" fill="#F5F5F5"/>
<path d="M268.672 65.248H249.803V85.5587H268.672V65.248Z" fill="white"/>
<path d="M262.431 70.1709H256.037C255.117 70.1709 254.372 70.9164 254.372 71.8361V78.9715C254.372 79.8911 255.117 80.6366 256.037 80.6366H262.431C263.35 80.6366 264.095 79.8911 264.095 78.9715V71.8361C264.095 70.9164 263.35 70.1709 262.431 70.1709Z" fill="#F0F0F0"/>
<path d="M256.19 29.79H235.27V53.9058H256.19V29.79Z" fill="#EBEBEB"/>
<path d="M253.715 29.79H231.044V53.9058H253.715V29.79Z" fill="#F5F5F5"/>
<path d="M251.818 31.6895H232.949V52.0001H251.818V31.6895Z" fill="white"/>
<path d="M245.577 36.6113H239.183C238.263 36.6113 237.518 37.3569 237.518 38.2765V45.4119C237.518 46.3315 238.263 47.0771 239.183 47.0771H245.577C246.496 47.0771 247.241 46.3315 247.241 45.4119V38.2765C247.241 37.3569 246.496 36.6113 245.577 36.6113Z" fill="#F0F0F0"/>
<path d="M141.606 259.678C219.768 259.678 283.131 255.977 283.131 251.411C283.131 246.845 219.768 243.144 141.606 243.144C63.4435 243.144 0.0803223 246.845 0.0803223 251.411C0.0803223 255.977 63.4435 259.678 141.606 259.678Z" fill="#F5F5F5"/>
<path d="M196.774 39.708H39.1753V194.109H196.774V39.708Z" fill="#749501"/>
<path d="M196.774 39.708H39.1753V194.109H196.774V39.708Z" fill="#B4B4B4"/>
<path d="M192.73 44.6455H43.2336V194.109H192.73V44.6455Z" fill="white"/>
<path d="M196.774 191.933V194.109H117.351L134.518 176.946L158.154 153.283L196.774 191.933Z" fill="#749501"/>
<path opacity="0.7" d="M196.774 191.933V194.109H117.351L134.518 176.946L158.154 153.283L196.774 191.933Z" fill="black"/>
<path d="M39.1753 194.108V179.268L88.0074 130.408L151.672 194.108H39.1753Z" fill="#749501"/>
<path opacity="0.7" d="M39.1753 194.108V179.268L88.0074 130.408L151.672 194.108H39.1753Z" fill="black"/>
<path d="M167.787 93.1377C169.922 79.9751 160.989 67.5726 147.834 65.436C134.678 63.2994 122.283 72.2378 120.147 85.4004C118.012 98.563 126.945 110.965 140.101 113.102C153.256 115.239 165.651 106.3 167.787 93.1377Z" fill="#749501"/>
<path opacity="0.7" d="M167.787 93.1377C169.922 79.9751 160.989 67.5726 147.834 65.436C134.678 63.2994 122.283 72.2378 120.147 85.4004C118.012 98.563 126.945 110.965 140.101 113.102C153.256 115.239 165.651 106.3 167.787 93.1377Z" fill="black"/>
<path d="M85.9125 36.6709L70.9077 190.34L227.759 205.673L242.764 52.0037L85.9125 36.6709Z" fill="#F5F5F5"/>
<path opacity="0.1" d="M85.9127 36.6221L70.908 190.291L227.76 205.624L242.764 51.9549L85.9127 36.6221Z" fill="black"/>
<path d="M89.473 41.9791L74.948 190.734L223.736 205.279L238.261 56.5236L89.473 41.9791Z" fill="white"/>
<path d="M225.268 47.7233L225.197 48.4502L230.413 48.9601L230.484 48.2332L225.268 47.7233Z" fill="#749501"/>
<path d="M208.653 45.0311L208.581 45.7578L221.407 47.0411L221.48 46.3143L208.653 45.0311Z" fill="#749501"/>
<path opacity="0.1" d="M225.268 47.7233L225.197 48.4502L230.413 48.9601L230.484 48.2332L225.268 47.7233Z" fill="black"/>
<path opacity="0.1" d="M208.653 45.0311L208.581 45.7578L221.407 47.0411L221.48 46.3143L208.653 45.0311Z" fill="black"/>
<path opacity="0.1" d="M227.963 203.493L227.752 205.662L148.708 197.935L167.46 182.525L193.285 161.272L227.963 203.493Z" fill="black"/>
<path d="M227.963 203.493L227.752 205.662L148.708 197.935L167.46 182.525L193.285 161.272L227.963 203.493Z" fill="#749501"/>
<path d="M227.963 203.493L227.752 205.662L148.708 197.935L167.46 182.525L193.285 161.272L227.963 203.493Z" fill="#1094D5"/>
<path opacity="0.1" d="M185.387 120.33C198.714 120.33 209.518 109.52 209.518 96.185C209.518 82.8501 198.714 72.04 185.387 72.04C172.059 72.04 161.255 82.8501 161.255 96.185C161.255 109.52 172.059 120.33 185.387 120.33Z" fill="black"/>
<path d="M185.387 120.33C198.714 120.33 209.518 109.52 209.518 96.185C209.518 82.8501 198.714 72.04 185.387 72.04C172.059 72.04 161.255 82.8501 161.255 96.185C161.255 109.52 172.059 120.33 185.387 120.33Z" fill="#749501"/>
<path d="M185.387 120.33C198.715 120.33 209.519 109.52 209.519 96.185C209.519 82.8501 198.715 72.04 185.387 72.04C172.06 72.04 161.256 82.8501 161.256 96.185C161.256 109.52 172.06 120.33 185.387 120.33Z" fill="url(#paint0_linear_569_9403)"/>
<path d="M172.817 57.0648L15.554 67.3506L25.6197 221.422L182.883 211.137L172.817 57.0648Z" fill="#959595"/>
<path d="M169.095 62.2528L19.9175 72.0098L29.6614 221.155L178.839 211.398L169.095 62.2528Z" fill="white"/>
<path opacity="0.5" d="M172.817 57.0648L15.554 67.3506L25.6197 221.422L182.883 211.137L172.817 57.0648Z" fill="white"/>
<path d="M182.723 208.978L182.861 211.147L103.613 216.325L119.621 198.082L141.664 172.929L182.723 208.978Z" fill="#749501"/>
<path d="M182.723 208.978L182.861 211.147L103.613 216.325L119.621 198.082L141.664 172.929L182.723 208.978Z" fill="#0672A8"/>
<path d="M25.5985 221.423L24.635 206.619L70.1824 154.678L137.854 214.091L25.5985 221.423Z" fill="#749501"/>
<path d="M25.5985 221.423L24.635 206.619L70.1824 154.678L137.854 214.091L25.5985 221.423Z" fill="#1094D5"/>
<path d="M123.343 134.119C136.67 134.119 147.474 123.309 147.474 109.974C147.474 96.6392 136.67 85.8291 123.343 85.8291C110.016 85.8291 99.2117 96.6392 99.2117 109.974C99.2117 123.309 110.016 134.119 123.343 134.119Z" fill="#749501"/>
<path d="M123.343 134.119C136.67 134.119 147.474 123.309 147.474 109.974C147.474 96.6392 136.67 85.8291 123.343 85.8291C110.016 85.8291 99.2117 96.6392 99.2117 109.974C99.2117 123.309 110.016 134.119 123.343 134.119Z" fill="url(#paint1_linear_569_9403)"/>
<path d="M244.255 94.1543C244.774 95.111 245.204 95.9582 245.628 96.8785C246.051 97.7987 246.467 98.6824 246.869 99.5953C247.65 101.421 248.38 103.247 249.058 105.182C249.725 107.099 250.29 109.049 250.752 111.025L251.095 112.53L251.372 114.056C251.474 114.567 251.533 115.093 251.606 115.612L251.708 116.4V116.919C251.723 117.162 251.723 117.406 251.708 117.649C251.65 119.044 251.328 120.414 250.759 121.688C250.319 122.709 249.812 123.699 249.241 124.653C248.178 126.397 247 128.069 245.715 129.656C243.245 132.728 240.538 135.602 237.62 138.252L234.642 135.579C236.766 132.512 238.876 129.342 240.774 126.201C241.703 124.673 242.553 123.099 243.321 121.484C243.667 120.757 243.962 120.008 244.204 119.241C244.386 118.748 244.475 118.226 244.467 117.7V117.54L244.328 116.912C244.241 116.488 244.161 116.072 244.036 115.648L243.701 114.377L243.328 113.099C242.796 111.398 242.204 109.696 241.54 107.987C240.876 106.278 240.175 104.605 239.438 102.933C238.701 101.26 237.891 99.5515 237.146 98.0105L244.255 94.1543Z" fill="#EEC1BB"/>
<path d="M252.628 106.929L242.693 112.18L240.299 113.451C240.299 113.451 239.737 111.807 238.942 109.419C238.299 107.513 237.482 105.139 236.708 102.737C236.46 102.006 236.212 101.225 235.978 100.48C235.905 100.268 235.832 100.064 235.766 99.8518C233.62 93.2788 239.577 90.3209 243.628 91.1681C250.562 92.6215 252.628 106.929 252.628 106.929Z" fill="#749501"/>
<path opacity="0.7" d="M252.628 106.929L242.693 112.18L240.299 113.451C240.299 113.451 239.737 111.807 238.942 109.419C238.299 107.513 237.482 105.139 236.708 102.737C236.46 102.006 236.212 101.225 235.978 100.48C235.905 100.268 235.832 100.064 235.766 99.8518C233.62 93.2788 239.577 90.3209 243.628 91.1681C250.562 92.6215 252.628 106.929 252.628 106.929Z" fill="white"/>
<path d="M242.694 112.18L240.299 113.451C240.299 113.451 239.737 111.807 238.942 109.419C238.299 107.513 237.482 105.139 236.708 102.737C236.46 102.006 236.212 101.225 235.978 100.48L241.453 99.4062C241.453 99.4062 242.197 108.09 242.694 112.18Z" fill="#749501"/>
<path opacity="0.6" d="M242.694 112.18L240.299 113.451C240.299 113.451 239.737 111.807 238.942 109.419C238.299 107.513 237.482 105.139 236.708 102.737C236.46 102.006 236.212 101.225 235.978 100.48L241.453 99.4062C241.453 99.4062 242.197 108.09 242.694 112.18Z" fill="white"/>
<path d="M235.854 134.747L230.745 136.449L235.38 141.422C235.38 141.422 239.416 139.005 238.38 136.719L235.854 134.747Z" fill="#EEC1BB"/>
<path d="M227.219 141.027L231.234 144.891L235.365 141.422L230.73 136.448L227.219 141.027Z" fill="#EEC1BB"/>
<path d="M199.234 240.083L193.934 239.689L193.438 227.295L198.737 227.689L199.234 240.083Z" fill="#EEC1BB"/>
<path d="M233.139 244.816H227.818L223.672 232.488H228.993L233.139 244.816Z" fill="#EEC1BB"/>
<path d="M193.438 227.303L193.693 233.693L199 234.088L198.745 227.697L193.438 227.303Z" fill="#DB9792"/>
<path d="M228.993 232.495H223.672L225.81 238.849H231.131L228.993 232.495Z" fill="#DB9792"/>
<path d="M233.051 237.615H223.307C223.307 237.615 213.818 204.955 211.431 188.047C210.92 184.396 211.219 179.575 211.985 174.346C213.292 165.4 215.934 155.241 218.131 147.66C220.088 140.919 221.701 136.208 221.701 136.208L240.015 137.574C239.022 150.873 225.869 172.71 226.781 190.757C227.62 207.416 233.051 237.615 233.051 237.615Z" fill="#749501"/>
<path d="M233.051 237.615H223.307C223.307 237.615 213.818 204.955 211.431 188.047C210.92 184.396 211.219 179.575 211.985 174.346C213.292 165.4 215.934 155.241 218.131 147.66C220.088 140.919 221.701 136.208 221.701 136.208L240.015 137.574C239.022 150.873 225.869 172.71 226.781 190.757C227.62 207.416 233.051 237.615 233.051 237.615Z" fill="#3F3E3E"/>
<path d="M235.715 76.1152C234.577 79.913 233.11 86.9388 235.562 89.7871C235.562 89.7871 234.102 93.6141 226.92 92.8984C219.007 92.1096 223.533 88.5967 223.533 88.5967C227.949 87.9905 228.161 84.777 227.701 81.6877L235.715 76.1152Z" fill="#EEC1BB"/>
<path d="M222.226 70.3673C222.183 70.7909 221.92 71.0976 221.642 71.0976C221.365 71.0976 221.175 70.7032 221.212 70.2723C221.248 69.8414 221.518 69.542 221.796 69.542C222.073 69.542 222.27 69.9364 222.226 70.3673Z" fill="#263238"/>
<path d="M222.212 70.5791C221.576 71.8349 220.768 72.9953 219.81 74.0263C220.08 74.265 220.399 74.4417 220.745 74.5439C221.09 74.6461 221.454 74.6714 221.81 74.6179L222.212 70.5791Z" fill="#D4827D"/>
<path d="M223.861 68.9583C223.817 68.959 223.773 68.9479 223.735 68.926C223.696 68.9042 223.665 68.8725 223.642 68.8341C223.485 68.5605 223.266 68.328 223.002 68.1553C222.738 67.9827 222.438 67.875 222.124 67.8408C222.057 67.8371 221.994 67.8078 221.948 67.7589C221.902 67.71 221.876 67.6452 221.876 67.5779C221.874 67.547 221.878 67.516 221.889 67.4868C221.899 67.4576 221.916 67.4309 221.937 67.4083C221.958 67.3857 221.984 67.3677 222.012 67.3554C222.041 67.3432 222.071 67.3368 222.102 67.3369H222.139C222.537 67.3717 222.92 67.5021 223.257 67.717C223.594 67.9319 223.874 68.2249 224.073 68.5712C224.109 68.6284 224.12 68.6973 224.105 68.763C224.09 68.8286 224.05 68.8857 223.993 68.9217C223.952 68.9439 223.907 68.9564 223.861 68.9583Z" fill="#263238"/>
<path d="M227.11 244.196H233.577C233.683 244.195 233.786 244.231 233.868 244.297C233.951 244.364 234.007 244.457 234.029 244.561L235.08 249.293C235.102 249.394 235.103 249.498 235.084 249.599C235.065 249.7 235.027 249.797 234.97 249.883C234.914 249.969 234.841 250.043 234.756 250.101C234.671 250.159 234.575 250.2 234.475 250.221H234.299C232.219 250.184 230.694 250.067 228.066 250.067C226.453 250.067 223.117 250.235 220.883 250.235C218.65 250.235 218.365 248.044 219.278 247.825C223.372 246.927 224.92 245.693 226.226 244.51C226.473 244.302 226.787 244.19 227.11 244.196Z" fill="#263238"/>
<path d="M193.679 238.499L199.474 238.929C199.58 238.94 199.678 238.985 199.755 239.058C199.832 239.13 199.882 239.227 199.898 239.331L200.591 244.122C200.608 244.223 200.604 244.325 200.581 244.424C200.558 244.523 200.515 244.616 200.455 244.699C200.395 244.781 200.32 244.85 200.233 244.903C200.146 244.956 200.049 244.991 199.949 245.006C199.886 245.013 199.822 245.013 199.759 245.006C197.672 244.809 194.65 244.465 192.037 244.276C188.964 244.049 186.927 243.94 183.321 243.669C181.131 243.509 180.708 241.259 181.628 241.128C185.847 240.529 188.62 240.763 192.372 238.82C192.77 238.594 193.222 238.483 193.679 238.499Z" fill="#263238"/>
<path d="M211.956 93.293C211.475 94.1182 210.898 95.0604 210.365 95.9514C209.832 96.8424 209.248 97.748 208.672 98.6317C207.526 100.406 206.336 102.145 205.102 103.824C203.869 105.504 202.584 107.126 201.234 108.637C200.072 109.953 198.808 111.174 197.453 112.289C196.327 112.549 195.182 112.715 194.029 112.786C192.564 112.859 191.095 112.771 189.65 112.523C187.391 112.127 185.203 111.404 183.153 110.376C182.81 110.2 182.475 110.01 182.146 109.82L181.226 109.273L178.445 112.136C178.839 112.588 179.139 112.866 179.496 113.246C179.837 113.581 180.195 113.898 180.569 114.195C181.299 114.81 182.067 115.378 182.869 115.897C184.501 116.941 186.257 117.78 188.095 118.395C189.972 119.016 191.919 119.402 193.891 119.541C195.878 119.665 197.872 119.549 199.832 119.198L200.438 119.088L201.131 118.636C203.173 117.272 205.067 115.698 206.781 113.94C208.434 112.28 209.984 110.522 211.423 108.674C212.883 106.863 214.183 104.986 215.445 103.079C216.073 102.108 216.679 101.129 217.27 100.158C217.861 99.1868 218.423 98.2154 219.007 97.1199L211.956 93.293Z" fill="#EEC1BB"/>
<path d="M183.643 111.011L179.672 107.534L176.643 112.778C176.643 112.778 179.467 115.948 182.789 113.954L183.643 111.011Z" fill="#EEC1BB"/>
<path d="M174.146 105.256L172.037 110.054L176.613 112.778L179.672 107.564L174.146 105.256Z" fill="#EEC1BB"/>
<path d="M236.759 70.3313C235.913 75.5459 235.686 78.6353 232.774 81.0673C228.394 84.719 222.153 81.6735 221.424 76.3128C220.767 71.4926 222.256 63.7729 227.591 62.1954C228.767 61.8425 230.014 61.7962 231.213 62.0608C232.411 62.3254 233.523 62.8921 234.441 63.7072C235.36 64.5222 236.055 65.5586 236.46 66.7179C236.866 67.8772 236.969 69.1211 236.759 70.3313Z" fill="#EEC1BB"/>
<path d="M242.657 67.585C246.555 70.3165 237.278 80.3367 233.978 80.2272C230.679 80.1176 224.489 70.9665 226.518 66.0952C224.818 65.4086 224.27 65.1822 223.599 63.444C222.343 60.2963 223.854 55.0452 231.562 56.5204C229.65 57.8204 230.978 58.8502 234.606 58.3463C233.146 60.048 235.54 61.3042 239.066 60.5738C238.445 63.6997 246.307 64.1452 242.657 67.585Z" fill="#263238"/>
<path d="M229.423 71.9453C229.176 73.2492 228.426 74.4035 227.336 75.1588C225.876 76.1448 224.591 74.9762 224.533 73.3038C224.482 71.8066 225.175 69.4841 226.861 69.1701C227.451 69.0707 228.056 69.2094 228.543 69.5559C229.03 69.9024 229.36 70.4282 229.46 71.0178C229.51 71.3263 229.498 71.6417 229.423 71.9453Z" fill="#EEC1BB"/>
<path opacity="0.4" d="M222.978 151.501C222.876 160.353 216.657 170.132 211.986 174.346C213.292 165.399 215.934 155.24 218.132 147.659C219.497 147.382 221.84 149.974 222.978 151.501Z" fill="black"/>
<path d="M225.351 245.13C224.988 245.157 224.627 245.059 224.329 244.852C224.232 244.773 224.157 244.67 224.111 244.554C224.064 244.438 224.049 244.311 224.066 244.187C224.066 244.114 224.086 244.043 224.123 243.98C224.16 243.917 224.214 243.865 224.278 243.83C224.876 243.537 226.584 244.56 226.781 244.706C226.8 244.72 226.815 244.739 226.824 244.761C226.833 244.783 226.836 244.807 226.832 244.83C226.83 244.855 226.819 244.879 226.802 244.897C226.785 244.915 226.762 244.928 226.737 244.932C226.285 245.056 225.819 245.122 225.351 245.13ZM224.562 244.027C224.507 244.012 224.449 244.012 224.394 244.027C224.369 244.042 224.349 244.064 224.335 244.089C224.321 244.115 224.314 244.144 224.314 244.173C224.304 244.258 224.314 244.344 224.345 244.425C224.375 244.505 224.425 244.576 224.489 244.633C225.082 244.904 225.756 244.938 226.373 244.728C225.82 244.373 225.206 244.125 224.562 243.998V244.027Z" fill="#749501"/>
<path d="M226.708 244.94H226.65C226.102 244.641 225.037 243.479 225.146 242.88C225.165 242.788 225.215 242.704 225.288 242.644C225.361 242.584 225.453 242.552 225.547 242.552C225.644 242.537 225.742 242.543 225.836 242.571C225.929 242.599 226.015 242.647 226.088 242.712C226.701 243.216 226.818 244.75 226.818 244.816C226.817 244.838 226.811 244.861 226.801 244.881C226.791 244.901 226.777 244.919 226.759 244.933L226.708 244.94ZM225.635 242.749H225.584C225.416 242.749 225.401 242.844 225.394 242.873C225.328 243.224 226.007 244.107 226.555 244.524C226.515 243.919 226.296 243.339 225.927 242.859C225.843 242.796 225.739 242.767 225.635 242.778V242.749Z" fill="#749501"/>
<path d="M191.861 239.28C191.253 239.346 190.642 239.191 190.139 238.842C190.06 238.759 190.002 238.659 189.969 238.55C189.937 238.441 189.93 238.326 189.949 238.214C189.956 238.144 189.981 238.078 190.022 238.022C190.063 237.965 190.119 237.921 190.183 237.893C190.854 237.586 192.905 238.82 193.139 238.966C193.16 238.98 193.177 239 193.188 239.023C193.198 239.046 193.201 239.072 193.197 239.098C193.191 239.123 193.177 239.147 193.157 239.165C193.138 239.183 193.114 239.195 193.088 239.2C192.681 239.252 192.271 239.279 191.861 239.28ZM190.46 238.09C190.402 238.09 190.345 238.103 190.292 238.126C190.267 238.137 190.244 238.153 190.228 238.175C190.211 238.197 190.2 238.223 190.197 238.25C190.182 238.325 190.185 238.401 190.207 238.474C190.229 238.547 190.268 238.613 190.321 238.667C190.628 238.981 191.496 239.098 192.679 238.988C192.003 238.55 191.25 238.245 190.46 238.09Z" fill="#749501"/>
<path d="M193.073 239.2H193.008C192.394 238.864 191.212 237.622 191.351 237.009C191.387 236.87 191.497 236.702 191.847 236.688C192.1 236.686 192.343 236.783 192.526 236.958C192.961 237.573 193.196 238.307 193.197 239.061C193.197 239.083 193.192 239.104 193.182 239.123C193.172 239.142 193.157 239.159 193.139 239.171L193.073 239.2ZM191.876 236.95C191.643 236.95 191.628 237.045 191.621 237.075C191.533 237.425 192.351 238.397 192.949 238.835C192.937 238.226 192.736 237.636 192.372 237.148C192.308 237.083 192.23 237.031 192.145 236.998C192.059 236.964 191.968 236.948 191.876 236.95Z" fill="#749501"/>
<path d="M211.679 135.463C211.679 135.463 188.701 170.242 188.073 186.47C187.424 203.348 191.832 232.313 191.832 232.313L200.818 232.985C200.818 232.985 201.861 205.436 203.489 188.931C205.263 170.943 231.226 150.895 232.248 136.997L211.679 135.463Z" fill="#749501"/>
<path d="M211.679 135.463C211.679 135.463 188.701 170.242 188.073 186.47C187.424 203.348 191.832 232.313 191.832 232.313L200.818 232.985C200.818 232.985 201.861 205.436 203.489 188.931C205.263 170.943 231.226 150.895 232.248 136.997L211.679 135.463Z" fill="#3F3E3E"/>
<path d="M221.584 237.826H234.321V234.394L220.088 234.175L221.584 237.826Z" fill="#749501"/>
<path d="M189.993 232.363L202.467 233.32L202.73 229.858L188.767 228.609L189.993 232.363Z" fill="#749501"/>
<path d="M221.584 95.7397C221.205 100.808 215.205 110.69 215.205 110.69L201.621 103.547C201.621 103.547 206.219 96.1487 211.248 91.7448C216.278 87.3408 222 90.1672 221.584 95.7397Z" fill="#749501"/>
<path opacity="0.7" d="M221.584 95.7397C221.205 100.808 215.205 110.69 215.205 110.69L201.621 103.547C201.621 103.547 206.219 96.1487 211.248 91.7448C216.278 87.3408 222 90.1672 221.584 95.7397Z" fill="white"/>
<path d="M221.993 89.9333C222.358 89.2029 221.832 86.6029 221.832 86.6029C221.832 86.6029 233.124 85.0838 237.161 86.5226C239.351 87.2967 237.424 91.2041 237.424 91.2041L221.993 89.9333Z" fill="#749501"/>
<path opacity="0.7" d="M221.993 89.9333C222.358 89.2029 221.832 86.6029 221.832 86.6029C221.832 86.6029 233.124 85.0838 237.161 86.5226C239.351 87.2967 237.424 91.2041 237.424 91.2041L221.993 89.9333Z" fill="black"/>
<path d="M240.008 137.573L211.679 135.462C210.754 128.325 210.429 121.123 210.708 113.932C210.825 111.347 211.029 108.966 211.278 106.789C212.591 95.4034 215.365 89.6191 215.365 89.6191C218.093 89.1145 220.855 88.8239 223.628 88.75C227.661 88.8154 231.688 89.1154 235.686 89.6483C238.585 90.0191 241.455 90.5852 244.278 91.3427C238.548 111.558 240.526 133.228 240.008 137.573Z" fill="#749501"/>
<path opacity="0.7" d="M240.008 137.573L211.679 135.462C210.754 128.325 210.429 121.123 210.708 113.932C210.825 111.347 211.029 108.966 211.278 106.789C212.591 95.4034 215.365 89.6191 215.365 89.6191C218.093 89.1145 220.855 88.8239 223.628 88.75C227.661 88.8154 231.688 89.1154 235.686 89.6483C238.585 90.0191 241.455 90.5852 244.278 91.3427C238.548 111.558 240.526 133.228 240.008 137.573Z" fill="white"/>
</g>
<defs>
<linearGradient id="paint0_linear_569_9403" x1="185.387" y1="72.04" x2="185.387" y2="120.33" gradientUnits="userSpaceOnUse">
<stop stop-color="#FF6A00"/>
<stop offset="1" stop-color="#F43838"/>
</linearGradient>
<linearGradient id="paint1_linear_569_9403" x1="123.343" y1="85.8291" x2="123.343" y2="134.119" gradientUnits="userSpaceOnUse">
<stop stop-color="#FF6A00"/>
<stop offset="1" stop-color="#F43838"/>
</linearGradient>
<clipPath id="clip0_569_9403">
<rect width="300" height="260" fill="white"/>
</clipPath>
</defs>
</svg>
